<?xml version="1.0" encoding="UTF-8"?>
<!DOCTYPE svg
PUBLIC "-//W3C//DTD SVG 1.1//EN"
       "http://www.w3.org/Graphics/SVG/1.1/DTD/svg11.dtd">
<svg viewBox="40 12 901 651" width="861px" height="639px" xmlns="http://www.w3.org/2000/svg" version="1.1">
   <line x1="479" y1="444" x2="469" y2="444" style="stroke:#bbb;stroke-width:1;"/>
   <line x1="386" y1="61" x2="376" y2="61" style="stroke:#bbb;stroke-width:1;"/>
   <line x1="469" y1="444" x2="386" y2="61" style="stroke:#bbb;stroke-width:1;"/>
   <line x1="471.5" y1="444" x2="475.03553390593" y2="447.53553390593" style="stroke:#bbb;stroke-width:2;"/>
   <line x1="471.5" y1="444" x2="475.03553390593" y2="440.46446609407" style="stroke:#bbb;stroke-width:2;"/>
   <line x1="381" y1="61" x2="384.53553390593" y2="64.535533905933" style="stroke:#bbb;stroke-width:2;"/>
   <line x1="381" y1="61" x2="384.53553390593" y2="57.464466094067" style="stroke:#bbb;stroke-width:2;"/>
   <line x1="479" y1="464" x2="469" y2="464" style="stroke:#0b0;stroke-width:1;"/>
   <line x1="469" y1="57" x2="479" y2="57" style="stroke:#0b0;stroke-width:1;"/>
   <line x1="469" y1="464" x2="469" y2="57" style="stroke:#0b0;stroke-width:1;"/>
   <line x1="471.5" y1="464" x2="475.03553390593" y2="467.53553390593" style="stroke:#0b0;stroke-width:2;"/>
   <line x1="471.5" y1="464" x2="475.03553390593" y2="460.46446609407" style="stroke:#0b0;stroke-width:2;"/>
   <line x1="474" y1="57" x2="470.46446609407" y2="60.535533905933" style="stroke:#0b0;stroke-width:2;"/>
   <line x1="474" y1="57" x2="470.46446609407" y2="53.464466094067" style="stroke:#0b0;stroke-width:2;"/>
   <line x1="479" y1="484" x2="469" y2="484" style="stroke:#0bf;stroke-width:1;"/>
   <line x1="377" y1="306" x2="367" y2="306" style="stroke:#0bf;stroke-width:1;"/>
   <line x1="469" y1="484" x2="377" y2="306" style="stroke:#0bf;stroke-width:1;"/>
   <line x1="471.5" y1="484" x2="475.03553390593" y2="487.53553390593" style="stroke:#0bf;stroke-width:2;"/>
   <line x1="471.5" y1="484" x2="475.03553390593" y2="480.46446609407" style="stroke:#0bf;stroke-width:2;"/>
   <line x1="372" y1="306" x2="375.53553390593" y2="309.53553390593" style="stroke:#0bf;stroke-width:2;"/>
   <line x1="372" y1="306" x2="375.53553390593" y2="302.46446609407" style="stroke:#0bf;stroke-width:2;"/>
   <line x1="745" y1="332" x2="735" y2="332" style="stroke:#0bf;stroke-width:1;"/>
   <line x1="184" y1="62" x2="174" y2="62" style="stroke:#0bf;stroke-width:1;"/>
   <line x1="735" y1="332" x2="184" y2="62" style="stroke:#0bf;stroke-width:1;"/>
   <line x1="737.5" y1="332" x2="741.03553390593" y2="335.53553390593" style="stroke:#0bf;stroke-width:2;"/>
   <line x1="737.5" y1="332" x2="741.03553390593" y2="328.46446609407" style="stroke:#0bf;stroke-width:2;"/>
   <line x1="179" y1="62" x2="182.53553390593" y2="65.535533905933" style="stroke:#0bf;stroke-width:2;"/>
   <line x1="179" y1="62" x2="182.53553390593" y2="58.464466094067" style="stroke:#0bf;stroke-width:2;"/>
   <line x1="745" y1="352" x2="735" y2="352" style="stroke:#cb0;stroke-width:1;"/>
   <line x1="611" y1="57" x2="601" y2="57" style="stroke:#cb0;stroke-width:1;"/>
   <line x1="735" y1="352" x2="611" y2="57" style="stroke:#cb0;stroke-width:1;"/>
   <line x1="737.5" y1="352" x2="741.03553390593" y2="355.53553390593" style="stroke:#cb0;stroke-width:2;"/>
   <line x1="737.5" y1="352" x2="741.03553390593" y2="348.46446609407" style="stroke:#cb0;stroke-width:2;"/>
   <line x1="606" y1="57" x2="609.53553390593" y2="60.535533905933" style="stroke:#cb0;stroke-width:2;"/>
   <line x1="606" y1="57" x2="609.53553390593" y2="53.464466094067" style="stroke:#cb0;stroke-width:2;"/>
   <line x1="741" y1="96" x2="731" y2="96" style="stroke:#c00;stroke-width:1;"/>
   <line x1="184" y1="62" x2="174" y2="62" style="stroke:#c00;stroke-width:1;"/>
   <line x1="731" y1="96" x2="184" y2="62" style="stroke:#c00;stroke-width:1;"/>
   <line x1="733.5" y1="96" x2="737.03553390593" y2="99.535533905933" style="stroke:#c00;stroke-width:2;"/>
   <line x1="733.5" y1="96" x2="737.03553390593" y2="92.464466094067" style="stroke:#c00;stroke-width:2;"/>
   <line x1="179" y1="62" x2="182.53553390593" y2="65.535533905933" style="stroke:#c00;stroke-width:2;"/>
   <line x1="179" y1="62" x2="182.53553390593" y2="58.464466094067" style="stroke:#c00;stroke-width:2;"/>
   <line x1="741" y1="116" x2="731" y2="116" style="stroke:#0bf;stroke-width:1;"/>
   <line x1="184" y1="62" x2="174" y2="62" style="stroke:#0bf;stroke-width:1;"/>
   <line x1="731" y1="116" x2="184" y2="62" style="stroke:#0bf;stroke-width:1;"/>
   <line x1="733.5" y1="116" x2="737.03553390593" y2="119.53553390593" style="stroke:#0bf;stroke-width:2;"/>
   <line x1="733.5" y1="116" x2="737.03553390593" y2="112.46446609407" style="stroke:#0bf;stroke-width:2;"/>
   <line x1="179" y1="62" x2="182.53553390593" y2="65.535533905933" style="stroke:#0bf;stroke-width:2;"/>
   <line x1="179" y1="62" x2="182.53553390593" y2="58.464466094067" style="stroke:#0bf;stroke-width:2;"/>
   <line x1="281" y1="386" x2="271" y2="386" style="stroke:#0b0;stroke-width:1;"/>
   <line x1="184" y1="62" x2="174" y2="62" style="stroke:#0b0;stroke-width:1;"/>
   <line x1="271" y1="386" x2="184" y2="62" style="stroke:#0b0;stroke-width:1;"/>
   <line x1="273.5" y1="386" x2="277.03553390593" y2="389.53553390593" style="stroke:#0b0;stroke-width:2;"/>
   <line x1="273.5" y1="386" x2="277.03553390593" y2="382.46446609407" style="stroke:#0b0;stroke-width:2;"/>
   <line x1="179" y1="62" x2="182.53553390593" y2="65.535533905933" style="stroke:#0b0;stroke-width:2;"/>
   <line x1="179" y1="62" x2="182.53553390593" y2="58.464466094067" style="stroke:#0b0;stroke-width:2;"/>
   <line x1="601" y1="217" x2="611" y2="217" style="stroke:#bbb;stroke-width:1;"/>
   <line x1="726" y1="505" x2="736" y2="505" style="stroke:#bbb;stroke-width:1;"/>
   <line x1="611" y1="217" x2="726" y2="505" style="stroke:#bbb;stroke-width:1;"/>
   <line x1="608.5" y1="217" x2="604.96446609407" y2="220.53553390593" style="stroke:#bbb;stroke-width:2;"/>
   <line x1="608.5" y1="217" x2="604.96446609407" y2="213.46446609407" style="stroke:#bbb;stroke-width:2;"/>
   <line x1="731" y1="505" x2="727.46446609407" y2="508.53553390593" style="stroke:#bbb;stroke-width:2;"/>
   <line x1="731" y1="505" x2="727.46446609407" y2="501.46446609407" style="stroke:#bbb;stroke-width:2;"/>
   <line x1="290" y1="161" x2="280" y2="161" style="stroke:#0b0;stroke-width:1;"/>
   <line x1="184" y1="62" x2="174" y2="62" style="stroke:#0b0;stroke-width:1;"/>
   <line x1="280" y1="161" x2="184" y2="62" style="stroke:#0b0;stroke-width:1;"/>
   <line x1="282.5" y1="161" x2="286.03553390593" y2="164.53553390593" style="stroke:#0b0;stroke-width:2;"/>
   <line x1="282.5" y1="161" x2="286.03553390593" y2="157.46446609407" style="stroke:#0b0;stroke-width:2;"/>
   <line x1="179" y1="62" x2="182.53553390593" y2="65.535533905933" style="stroke:#0b0;stroke-width:2;"/>
   <line x1="179" y1="62" x2="182.53553390593" y2="58.464466094067" style="stroke:#0b0;stroke-width:2;"/>
   <line x1="275" y1="566" x2="265" y2="566" style="stroke:#0b0;stroke-width:1;"/>
   <line x1="280" y1="61" x2="290" y2="61" style="stroke:#0b0;stroke-width:1;"/>
   <line x1="265" y1="566" x2="280" y2="61" style="stroke:#0b0;stroke-width:1;"/>
   <line x1="267.5" y1="566" x2="271.03553390593" y2="569.53553390593" style="stroke:#0b0;stroke-width:2;"/>
   <line x1="267.5" y1="566" x2="271.03553390593" y2="562.46446609407" style="stroke:#0b0;stroke-width:2;"/>
   <line x1="285" y1="61" x2="281.46446609407" y2="64.535533905933" style="stroke:#0b0;stroke-width:2;"/>
   <line x1="285" y1="61" x2="281.46446609407" y2="57.464466094067" style="stroke:#0b0;stroke-width:2;"/>
   <line x1="356" y1="586" x2="366" y2="586" style="stroke:#c00;stroke-width:1;"/>
   <line x1="469" y1="57" x2="479" y2="57" style="stroke:#c00;stroke-width:1;"/>
   <line x1="366" y1="586" x2="469" y2="57" style="stroke:#c00;stroke-width:1;"/>
   <line x1="363.5" y1="586" x2="359.96446609407" y2="589.53553390593" style="stroke:#c00;stroke-width:2;"/>
   <line x1="363.5" y1="586" x2="359.96446609407" y2="582.46446609407" style="stroke:#c00;stroke-width:2;"/>
   <line x1="474" y1="57" x2="470.46446609407" y2="60.535533905933" style="stroke:#c00;stroke-width:2;"/>
   <line x1="474" y1="57" x2="470.46446609407" y2="53.464466094067" style="stroke:#c00;stroke-width:2;"/>
   <line x1="275" y1="606" x2="265" y2="606" style="stroke:#b0b;stroke-width:1;"/>
   <line x1="271" y1="306" x2="281" y2="306" style="stroke:#b0b;stroke-width:1;"/>
   <line x1="265" y1="606" x2="271" y2="306" style="stroke:#b0b;stroke-width:1;"/>
   <line x1="267.5" y1="606" x2="271.03553390593" y2="609.53553390593" style="stroke:#b0b;stroke-width:2;"/>
   <line x1="267.5" y1="606" x2="271.03553390593" y2="602.46446609407" style="stroke:#b0b;stroke-width:2;"/>
   <line x1="276" y1="306" x2="272.46446609407" y2="309.53553390593" style="stroke:#b0b;stroke-width:2;"/>
   <line x1="276" y1="306" x2="272.46446609407" y2="302.46446609407" style="stroke:#b0b;stroke-width:2;"/>
   <line x1="55" y1="439" x2="45" y2="439" style="stroke:#0bf;stroke-width:1;"/>
   <line x1="46" y1="62" x2="56" y2="62" style="stroke:#0bf;stroke-width:1;"/>
   <line x1="45" y1="439" x2="46" y2="62" style="stroke:#0bf;stroke-width:1;"/>
   <line x1="47.5" y1="439" x2="51.035533905933" y2="442.53553390593" style="stroke:#0bf;stroke-width:2;"/>
   <line x1="47.5" y1="439" x2="51.035533905933" y2="435.46446609407" style="stroke:#0bf;stroke-width:2;"/>
   <line x1="51" y1="62" x2="47.464466094067" y2="65.535533905933" style="stroke:#0bf;stroke-width:2;"/>
   <line x1="51" y1="62" x2="47.464466094067" y2="58.464466094067" style="stroke:#0bf;stroke-width:2;"/>
   <rect width="109" height="20" x="479" y="394" style="fill:#007;stroke:black;"/>
   <text width="109" height="20" x="484" y="408" style="fill:#fff;" font-family="Arial" font-size="16px"> attendance</text>
   <rect width="109" height="20" x="479" y="414" style="fill:#aea;stroke:black;"/>
   <text width="109" height="20" x="484" y="428" style="fill:black;" font-family="Arial" font-size="16px">id</text>
   <rect width="109" height="20" x="479" y="434" style="fill:none;stroke:black;"/>
   <text width="109" height="20" x="484" y="448" style="fill:black;" font-family="Arial" font-size="16px">student_id</text>
   <rect width="109" height="20" x="479" y="454" style="fill:none;stroke:black;"/>
   <text width="109" height="20" x="484" y="468" style="fill:black;" font-family="Arial" font-size="16px">lesson_id</text>
   <rect width="109" height="20" x="479" y="474" style="fill:none;stroke:black;"/>
   <text width="109" height="20" x="484" y="488" style="fill:black;" font-family="Arial" font-size="16px">lecturer_id</text>
   <rect width="109" height="20" x="479" y="494" style="fill:none;stroke:black;"/>
   <text width="109" height="20" x="484" y="508" style="fill:black;" font-family="Arial" font-size="16px">recorded_date</text>
   <rect width="109" height="20" x="479" y="514" style="fill:none;stroke:black;"/>
   <text width="109" height="20" x="484" y="528" style="fill:black;" font-family="Arial" font-size="16px">recorded_time</text>
   <rect width="109" height="20" x="479" y="534" style="fill:none;stroke:black;"/>
   <text width="109" height="20" x="484" y="548" style="fill:black;" font-family="Arial" font-size="16px">is_absent</text>
   <rect width="109" height="20" x="479" y="554" style="fill:none;stroke:black;"/>
   <text width="109" height="20" x="484" y="568" style="fill:black;" font-family="Arial" font-size="16px">is_late</text>
   <rect width="109" height="20" x="479" y="574" style="fill:none;stroke:black;"/>
   <text width="109" height="20" x="484" y="588" style="fill:black;" font-family="Arial" font-size="16px">late_min</text>
   <rect width="109" height="20" x="479" y="594" style="fill:none;stroke:black;"/>
   <text width="109" height="20" x="484" y="608" style="fill:black;" font-family="Arial" font-size="16px">created_at</text>
   <rect width="109" height="20" x="479" y="614" style="fill:none;stroke:black;"/>
   <text width="109" height="20" x="484" y="628" style="fill:black;" font-family="Arial" font-size="16px">updated_at</text>
   <rect width="86" height="20" x="745" y="222" style="fill:#007;stroke:black;"/>
   <text width="86" height="20" x="750" y="236" style="fill:#fff;" font-family="Arial" font-size="16px"> beacon</text>
   <rect width="86" height="20" x="745" y="242" style="fill:#aea;stroke:black;"/>
   <text width="86" height="20" x="750" y="256" style="fill:black;" font-family="Arial" font-size="16px">id</text>
   <rect width="86" height="20" x="745" y="262" style="fill:none;stroke:black;"/>
   <text width="86" height="20" x="750" y="276" style="fill:black;" font-family="Arial" font-size="16px">uuid</text>
   <rect width="86" height="20" x="745" y="282" style="fill:none;stroke:black;"/>
   <text width="86" height="20" x="750" y="296" style="fill:black;" font-family="Arial" font-size="16px">major</text>
   <rect width="86" height="20" x="745" y="302" style="fill:none;stroke:black;"/>
   <text width="86" height="20" x="750" y="316" style="fill:black;" font-family="Arial" font-size="16px">minor</text>
   <rect width="86" height="20" x="745" y="322" style="fill:none;stroke:black;"/>
   <text width="86" height="20" x="750" y="336" style="fill:black;" font-family="Arial" font-size="16px">user_id</text>
   <rect width="86" height="20" x="745" y="342" style="fill:none;stroke:black;"/>
   <text width="86" height="20" x="750" y="356" style="fill:black;" font-family="Arial" font-size="16px">lesson_id</text>
   <rect width="86" height="20" x="745" y="362" style="fill:none;stroke:black;"/>
   <text width="86" height="20" x="750" y="376" style="fill:black;" font-family="Arial" font-size="16px">created_at</text>
   <rect width="86" height="20" x="745" y="382" style="fill:none;stroke:black;"/>
   <text width="86" height="20" x="750" y="396" style="fill:black;" font-family="Arial" font-size="16px">updated_at</text>
   <rect width="145" height="20" x="741" y="46" style="fill:#007;stroke:black;"/>
   <text width="145" height="20" x="746" y="60" style="fill:#fff;" font-family="Arial" font-size="16px"> beacon_attendance</text>
   <rect width="145" height="20" x="741" y="66" style="fill:#aea;stroke:black;"/>
   <text width="145" height="20" x="746" y="80" style="fill:black;" font-family="Arial" font-size="16px">id</text>
   <rect width="145" height="20" x="741" y="86" style="fill:none;stroke:black;"/>
   <text width="145" height="20" x="746" y="100" style="fill:black;" font-family="Arial" font-size="16px">user_id</text>
   <rect width="145" height="20" x="741" y="106" style="fill:none;stroke:black;"/>
   <text width="145" height="20" x="746" y="120" style="fill:black;" font-family="Arial" font-size="16px">scanned_user_id</text>
   <rect width="145" height="20" x="741" y="126" style="fill:none;stroke:black;"/>
   <text width="145" height="20" x="746" y="140" style="fill:black;" font-family="Arial" font-size="16px">created_at</text>
   <rect width="145" height="20" x="741" y="146" style="fill:none;stroke:black;"/>
   <text width="145" height="20" x="746" y="160" style="fill:black;" font-family="Arial" font-size="16px">updated_at</text>
   <rect width="86" height="20" x="281" y="276" style="fill:#007;stroke:black;"/>
   <text width="86" height="20" x="286" y="290" style="fill:#fff;" font-family="Arial" font-size="16px"> lecturer</text>
   <rect width="86" height="20" x="281" y="296" style="fill:#aea;stroke:black;"/>
   <text width="86" height="20" x="286" y="310" style="fill:black;" font-family="Arial" font-size="16px">id</text>
   <rect width="86" height="20" x="281" y="316" style="fill:none;stroke:black;"/>
   <text width="86" height="20" x="286" y="330" style="fill:black;" font-family="Arial" font-size="16px">name</text>
   <rect width="86" height="20" x="281" y="336" style="fill:none;stroke:black;"/>
   <text width="86" height="20" x="286" y="350" style="fill:black;" font-family="Arial" font-size="16px">acad</text>
   <rect width="86" height="20" x="281" y="356" style="fill:none;stroke:black;"/>
   <text width="86" height="20" x="286" y="370" style="fill:black;" font-family="Arial" font-size="16px">email</text>
   <rect width="86" height="20" x="281" y="376" style="fill:none;stroke:black;"/>
   <text width="86" height="20" x="286" y="390" style="fill:black;" font-family="Arial" font-size="16px">user_id</text>
   <rect width="86" height="20" x="281" y="396" style="fill:none;stroke:black;"/>
   <text width="86" height="20" x="286" y="410" style="fill:black;" font-family="Arial" font-size="16px">created_at</text>
   <rect width="86" height="20" x="281" y="416" style="fill:none;stroke:black;"/>
   <text width="86" height="20" x="286" y="430" style="fill:black;" font-family="Arial" font-size="16px">updated_at</text>
   <rect width="122" height="20" x="479" y="27" style="fill:#007;stroke:black;"/>
   <text width="122" height="20" x="484" y="41" style="fill:#fff;" font-family="Arial" font-size="16px"> lesson</text>
   <rect width="122" height="20" x="479" y="47" style="fill:#aea;stroke:black;"/>
   <text width="122" height="20" x="484" y="61" style="fill:black;" font-family="Arial" font-size="16px">id</text>
   <rect width="122" height="20" x="479" y="67" style="fill:none;stroke:black;"/>
   <text width="122" height="20" x="484" y="81" style="fill:black;" font-family="Arial" font-size="16px">semester</text>
   <rect width="122" height="20" x="479" y="87" style="fill:none;stroke:black;"/>
   <text width="122" height="20" x="484" y="101" style="fill:black;" font-family="Arial" font-size="16px">module_id</text>
   <rect width="122" height="20" x="479" y="107" style="fill:none;stroke:black;"/>
   <text width="122" height="20" x="484" y="121" style="fill:black;" font-family="Arial" font-size="16px">subject_area</text>
   <rect width="122" height="20" x="479" y="127" style="fill:none;stroke:black;"/>
   <text width="122" height="20" x="484" y="141" style="fill:black;" font-family="Arial" font-size="16px">catalog_number</text>
   <rect width="122" height="20" x="479" y="147" style="fill:none;stroke:black;"/>
   <text width="122" height="20" x="484" y="161" style="fill:black;" font-family="Arial" font-size="16px">class_section</text>
   <rect width="122" height="20" x="479" y="167" style="fill:none;stroke:black;"/>
   <text width="122" height="20" x="484" y="181" style="fill:black;" font-family="Arial" font-size="16px">component</text>
   <rect width="122" height="20" x="479" y="187" style="fill:none;stroke:black;"/>
   <text width="122" height="20" x="484" y="201" style="fill:black;" font-family="Arial" font-size="16px">facility</text>
   <rect width="122" height="20" x="479" y="207" style="fill:none;stroke:black;"/>
   <text width="122" height="20" x="484" y="221" style="fill:black;" font-family="Arial" font-size="16px">venue_id</text>
   <rect width="122" height="20" x="479" y="227" style="fill:none;stroke:black;"/>
   <text width="122" height="20" x="484" y="241" style="fill:black;" font-family="Arial" font-size="16px">weekday</text>
   <rect width="122" height="20" x="479" y="247" style="fill:none;stroke:black;"/>
   <text width="122" height="20" x="484" y="261" style="fill:black;" font-family="Arial" font-size="16px">start_time</text>
   <rect width="122" height="20" x="479" y="267" style="fill:none;stroke:black;"/>
   <text width="122" height="20" x="484" y="281" style="fill:black;" font-family="Arial" font-size="16px">end_time</text>
   <rect width="122" height="20" x="479" y="287" style="fill:none;stroke:black;"/>
   <text width="122" height="20" x="484" y="301" style="fill:black;" font-family="Arial" font-size="16px">meeting_pattern</text>
   <rect width="122" height="20" x="479" y="307" style="fill:none;stroke:black;"/>
   <text width="122" height="20" x="484" y="321" style="fill:black;" font-family="Arial" font-size="16px">created_at</text>
   <rect width="122" height="20" x="479" y="327" style="fill:none;stroke:black;"/>
   <text width="122" height="20" x="484" y="341" style="fill:black;" font-family="Arial" font-size="16px">updated_at</text>
   <rect width="86" height="20" x="290" y="31" style="fill:#007;stroke:black;"/>
   <text width="86" height="20" x="295" y="45" style="fill:#fff;" font-family="Arial" font-size="16px"> student</text>
   <rect width="86" height="20" x="290" y="51" style="fill:#aea;stroke:black;"/>
   <text width="86" height="20" x="295" y="65" style="fill:black;" font-family="Arial" font-size="16px">id</text>
   <rect width="86" height="20" x="290" y="71" style="fill:none;stroke:black;"/>
   <text width="86" height="20" x="295" y="85" style="fill:black;" font-family="Arial" font-size="16px">name</text>
   <rect width="86" height="20" x="290" y="91" style="fill:none;stroke:black;"/>
   <text width="86" height="20" x="295" y="105" style="fill:black;" font-family="Arial" font-size="16px">gender</text>
   <rect width="86" height="20" x="290" y="111" style="fill:none;stroke:black;"/>
   <text width="86" height="20" x="295" y="125" style="fill:black;" font-family="Arial" font-size="16px">acad</text>
   <rect width="86" height="20" x="290" y="131" style="fill:none;stroke:black;"/>
   <text width="86" height="20" x="295" y="145" style="fill:black;" font-family="Arial" font-size="16px">uuid</text>
   <rect width="86" height="20" x="290" y="151" style="fill:none;stroke:black;"/>
   <text width="86" height="20" x="295" y="165" style="fill:black;" font-family="Arial" font-size="16px">user_id</text>
   <rect width="86" height="20" x="290" y="171" style="fill:none;stroke:black;"/>
   <text width="86" height="20" x="295" y="185" style="fill:black;" font-family="Arial" font-size="16px">created_at</text>
   <rect width="86" height="20" x="290" y="191" style="fill:none;stroke:black;"/>
   <text width="86" height="20" x="295" y="205" style="fill:black;" font-family="Arial" font-size="16px">updated_at</text>
   <rect width="81" height="20" x="275" y="516" style="fill:#007;stroke:black;"/>
   <text width="81" height="20" x="280" y="530" style="fill:#fff;" font-family="Arial" font-size="16px"> timetable</text>
   <rect width="81" height="20" x="275" y="536" style="fill:#aea;stroke:black;"/>
   <text width="81" height="20" x="280" y="550" style="fill:black;" font-family="Arial" font-size="16px">id</text>
   <rect width="81" height="20" x="275" y="556" style="fill:none;stroke:black;"/>
   <text width="81" height="20" x="280" y="570" style="fill:black;" font-family="Arial" font-size="16px">student_id</text>
   <rect width="81" height="20" x="275" y="576" style="fill:none;stroke:black;"/>
   <text width="81" height="20" x="280" y="590" style="fill:black;" font-family="Arial" font-size="16px">lesson_id</text>
   <rect width="81" height="20" x="275" y="596" style="fill:none;stroke:black;"/>
   <text width="81" height="20" x="280" y="610" style="fill:black;" font-family="Arial" font-size="16px">lecturer_id</text>
   <rect width="81" height="20" x="275" y="616" style="fill:none;stroke:black;"/>
   <text width="81" height="20" x="280" y="630" style="fill:black;" font-family="Arial" font-size="16px">created_at</text>
   <rect width="118" height="20" x="56" y="32" style="fill:#007;stroke:black;"/>
   <text width="118" height="20" x="61" y="46" style="fill:#fff;" font-family="Arial" font-size="16px"> user</text>
   <rect width="118" height="20" x="56" y="52" style="fill:#aea;stroke:black;"/>
   <text width="118" height="20" x="61" y="66" style="fill:black;" font-family="Arial" font-size="16px">id</text>
   <rect width="118" height="20" x="56" y="72" style="fill:none;stroke:black;"/>
   <text width="118" height="20" x="61" y="86" style="fill:black;" font-family="Arial" font-size="16px">person_id</text>
   <rect width="118" height="20" x="56" y="92" style="fill:none;stroke:black;"/>
   <text width="118" height="20" x="61" y="106" style="fill:black;" font-family="Arial" font-size="16px">face_id</text>
   <rect width="118" height="20" x="56" y="112" style="fill:none;stroke:black;"/>
   <text width="118" height="20" x="61" y="126" style="fill:black;" font-family="Arial" font-size="16px">username</text>
   <rect width="118" height="20" x="56" y="132" style="fill:none;stroke:black;"/>
   <text width="118" height="20" x="61" y="146" style="fill:black;" font-family="Arial" font-size="16px">auth_key</text>
   <rect width="118" height="20" x="56" y="152" style="fill:none;stroke:black;"/>
   <text width="118" height="20" x="61" y="166" style="fill:black;" font-family="Arial" font-size="16px">device_hash</text>
   <rect width="118" height="20" x="56" y="172" style="fill:none;stroke:black;"/>
   <text width="118" height="20" x="61" y="186" style="fill:black;" font-family="Arial" font-size="16px">password_hash</text>
   <rect width="118" height="20" x="56" y="192" style="fill:none;stroke:black;"/>
   <text width="118" height="20" x="61" y="206" style="fill:black;" font-family="Arial" font-size="16px">email</text>
   <rect width="118" height="20" x="56" y="212" style="fill:none;stroke:black;"/>
   <text width="118" height="20" x="61" y="226" style="fill:black;" font-family="Arial" font-size="16px">profileImg</text>
   <rect width="118" height="20" x="56" y="232" style="fill:none;stroke:black;"/>
   <text width="118" height="20" x="61" y="246" style="fill:black;" font-family="Arial" font-size="16px">status</text>
   <rect width="118" height="20" x="56" y="252" style="fill:none;stroke:black;"/>
   <text width="118" height="20" x="61" y="266" style="fill:black;" font-family="Arial" font-size="16px">role</text>
   <rect width="118" height="20" x="56" y="272" style="fill:none;stroke:black;"/>
   <text width="118" height="20" x="61" y="286" style="fill:black;" font-family="Arial" font-size="16px">name</text>
   <rect width="118" height="20" x="56" y="292" style="fill:none;stroke:black;"/>
   <text width="118" height="20" x="61" y="306" style="fill:black;" font-family="Arial" font-size="16px">created_at</text>
   <rect width="118" height="20" x="56" y="312" style="fill:none;stroke:black;"/>
   <text width="118" height="20" x="61" y="326" style="fill:black;" font-family="Arial" font-size="16px">updated_at</text>
   <rect width="104" height="20" x="55" y="389" style="fill:#007;stroke:black;"/>
   <text width="104" height="20" x="60" y="403" style="fill:#fff;" font-family="Arial" font-size="16px"> user_token</text>
   <rect width="104" height="20" x="55" y="409" style="fill:#aea;stroke:black;"/>
   <text width="104" height="20" x="60" y="423" style="fill:black;" font-family="Arial" font-size="16px">id</text>
   <rect width="104" height="20" x="55" y="429" style="fill:none;stroke:black;"/>
   <text width="104" height="20" x="60" y="443" style="fill:black;" font-family="Arial" font-size="16px">user_id</text>
   <rect width="104" height="20" x="55" y="449" style="fill:none;stroke:black;"/>
   <text width="104" height="20" x="60" y="463" style="fill:black;" font-family="Arial" font-size="16px">token</text>
   <rect width="104" height="20" x="55" y="469" style="fill:none;stroke:black;"/>
   <text width="104" height="20" x="60" y="483" style="fill:black;" font-family="Arial" font-size="16px">title</text>
   <rect width="104" height="20" x="55" y="489" style="fill:none;stroke:black;"/>
   <text width="104" height="20" x="60" y="503" style="fill:black;" font-family="Arial" font-size="16px">ip_address</text>
   <rect width="104" height="20" x="55" y="509" style="fill:none;stroke:black;"/>
   <text width="104" height="20" x="60" y="523" style="fill:black;" font-family="Arial" font-size="16px">expire_date</text>
   <rect width="104" height="20" x="55" y="529" style="fill:none;stroke:black;"/>
   <text width="104" height="20" x="60" y="543" style="fill:black;" font-family="Arial" font-size="16px">created_date</text>
   <rect width="104" height="20" x="55" y="549" style="fill:none;stroke:black;"/>
   <text width="104" height="20" x="60" y="563" style="fill:black;" font-family="Arial" font-size="16px">updated_date</text>
   <rect width="104" height="20" x="55" y="569" style="fill:none;stroke:black;"/>
   <text width="104" height="20" x="60" y="583" style="fill:black;" font-family="Arial" font-size="16px">action</text>
   <rect width="86" height="20" x="736" y="475" style="fill:#007;stroke:black;"/>
   <text width="86" height="20" x="741" y="489" style="fill:#fff;" font-family="Arial" font-size="16px"> venue</text>
   <rect width="86" height="20" x="736" y="495" style="fill:#aea;stroke:black;"/>
   <text width="86" height="20" x="741" y="509" style="fill:black;" font-family="Arial" font-size="16px">id</text>
   <rect width="86" height="20" x="736" y="515" style="fill:none;stroke:black;"/>
   <text width="86" height="20" x="741" y="529" style="fill:black;" font-family="Arial" font-size="16px">location</text>
   <rect width="86" height="20" x="736" y="535" style="fill:none;stroke:black;"/>
   <text width="86" height="20" x="741" y="549" style="fill:black;" font-family="Arial" font-size="16px">name</text>
   <rect width="86" height="20" x="736" y="555" style="fill:none;stroke:black;"/>
   <text width="86" height="20" x="741" y="569" style="fill:black;" font-family="Arial" font-size="16px">created_at</text>
   <rect width="86" height="20" x="736" y="575" style="fill:none;stroke:black;"/>
   <text width="86" height="20" x="741" y="589" style="fill:black;" font-family="Arial" font-size="16px">updated_at</text>
</svg>
